<svg width="772" height="260" xmlns="http://www.w3.org/2000/svg"><g fill="none" fill-rule="evenodd"><path fill="#D0D2D6" d="M0 0h772v260H0z"/><path d="M29.6 0h53.7c9.4 15.4 21.6 28.8 36.4 40.5 31.8 25.2 75 41.7 125.8 50.6 28.7 5 56.2 7 118.7 10 30.2 1.3 41.5 1.8 57.4 2.8 45.4 2.7 81 6.8 114 14C576 126 610.3 139 639 158c36.8 24.5 63.3 58.2 78.6 101.8h-51.8c-12.2-26-30-46.3-53.5-61.8-23-15.3-51.7-26.3-86.8-34-30-6.4-63.6-10.2-106.8-12.8-15.5-1-26.6-1.5-56.6-2.7-64.2-2.8-93-5-124.5-10.4-58-10-108.5-29-147.5-60C63 57 42.5 30.8 29.5 0z" fill="#F1F3F4"/></g></svg>