<svg width="772" height="260" xmlns="http://www.w3.org/2000/svg"><g fill="none" fill-rule="evenodd"><path fill="#00BFA5" d="M0 0h772v260H0z"/><path d="M29.6 0h53.7c9.4 15.4 21.6 28.8 36.4 40.5 31.8 25.2 75 41.7 125.8 50.6 28.7 5 56.2 7 118.7 10 30.2 2 41.5 2 57.4 3 45.4 3 81 7 114 14 40.4 8 74.7 21 103.4 40 36.8 25 63.3 59 78.6 102h-51.8c-12.2-26-30-46-53.5-62-23-15-51.7-26-86.8-34-30-6-63.6-10-106.8-12-15.5-1-26.6-1-56.6-2-64-3-93-5-124-10-58-10-108-29-147-60C63 57 43 31 30 0z" fill="#3B61FF"/><path d="M21.5 255l11.4-9.8c1-1.3 1-3.5 0-5-1-1.4-4-1.6-5-.3l-11 9c-2 1-2 3-1 5 1 1 3 1 5 0zm22.7-19.6l11.4-9.8c1.5-1.3 1.6-3.5.4-5-1.3-1.4-3.5-1.6-5-.3L39.8 230c-1.5 1.3-1.6 3.6-.4 5 1.3 1.5 3.5 1.6 5 .4zM67 215.8l11.4-9.8c1.4-1.2 1.6-3.4.3-5-1.2-1.4-3.4-1.5-5-.3l-11.3 9.8c-1.4 1.3-1.6 3.5-.3 5 2 1.4 4 1.6 5 .3zm22.7-19.5l11.4-9.8c2-1.3 2-3.5 1-5-1-1.4-3-1.6-5-.3L85 191c-1.5 1.2-1.7 3.4-.4 5 1.3 1.3 3.5 1.5 5 .3zm22.8-19.6l11.3-9.8c1.5-2 1.7-4 .4-5-1.3-2-3.5-2-5-1L108 171c-2 1.3-2 3.6-.8 5 1.3 1.5 3.5 1.6 5 .4zm22.7-19.6l11.4-9c1.4-1 1.6-3 .4-5-1.3-1-3.5-1-5 0l-11.4 10c-1.4 1-1.6 4-.3 5 1.2 2 3.4 2 5 0zm22.8-19l11.3-9c1.5-1 1.7-3 .4-5-1.3-1-3.5-1-5 0l-11.3 10c-1.5 2-1.6 4-.4 5 1.3 2 3.5 2 5 1zm22.7-19l11.3-10c2-1 2-3 1-5-1.3-1-3.5-1-5 0l-11.4 10c-1.3 1-1.5 4-.2 5 1.3 2 3.5 2 5 1zm22.7-20l11.4-10c1.5-1 1.6-3 .4-5-1.3-1-3.5-1-5 0L199 93c-1.6 1.4-1.8 3.6-.5 5 1.3 1.5 3.5 1.7 5 .4zm22.8-20l11.3-10c1.5-1 1.7-3 .4-5-2-1-4-1-5 0l-12 10c-2 2-2 4-1 5s3 2 5 1zM249 60l11.3-9.8c1.5-1.4 1.6-3.6.4-5-1.3-1.5-3.5-1.7-5-.4l-11.3 10c-1.5 2-1.7 4-.4 5 1.2 2 3.5 2 5 1zm22.7-20L283 30c1.5-1.3 1.7-3.5.4-5-1.3-1.5-3.5-1.6-5-.4L267 34.4c-1.3 1.3-1.4 3.5-.2 5 1.3 1.4 3.5 1.6 5 .3zm22.7-20l11.4-9.7c1.4-1.3 1.6-3.5.3-5-1-1.4-3-1.6-4-.3l-12 10c-1 1.3-1 3.5 0 5s4 1.6 5 .4z" fill="#F3F5F6" fill-rule="nonzero"/><path fill="#FFC107" d="M390.2 0h21.6L105 260H83.5L390.2 0"/><path fill="#FFF" d="M425 0h23.4l113 65.8L637.6 0H656l-83.7 72L772 188.5v14l-209.3-122L354 260h-18.4l216-186L425 .2V0"/><ellipse fill="#FF3D00" cx="78" cy="79" rx="24" ry="24"/><ellipse fill="#FF3D00" cx="717" cy="162" rx="24" ry="24"/><path d="M486 164.4c0 17.8-33.5 60.6-33.5 60.6S419 182.2 419 164.4c0-18 15-32.4 33.5-32.4s33.5 14.5 33.5 32.4" fill="#FF563E"/><path d="M465.3 163c0 6.6-5.6 11.8-12.4 11.8-7 0-13-5.2-13-11.7 0-6 5-11 12-11 6 0 12 5 12 12" fill="#CC4331"/><rect fill="#292D33" x="66" y="171" width="141.3" height="44" rx="22"/></g></svg>